<?xml version="1.0" encoding="UTF-8"?>
<svg id="Layer_1" data-name="Layer 1" xmlns="http://www.w3.org/2000/svg" viewBox="0 0 883.37 240.67">
  <defs>
    <style>
      .cls-1 {
        fill: #f7b384;
      }

      .cls-2 {
        fill: #f68d40;
      }

      .cls-3 {
        fill: #fff;
      }

      .cls-4 {
        fill: #2cbbd8;
      }
    </style>
  </defs>
  <path class="cls-3" d="m543.44,75.24h10.92c7.1,25.47,14.2,50.91,21.62,77.52,10.4-26.42,20.41-51.83,30.47-77.38.75-.06,1.54-.13,2.5-.21,10.05,25.57,20.06,51.05,30.57,77.8,7.68-26.81,14.96-52.21,22.25-77.64h10.99c-10.24,35.71-20.41,71.18-30.6,106.73-2.07.78-2.67-.44-3.31-2.07-10.06-25.77-20.16-51.53-30.27-77.29-.08-.21-.32-.36-.96-1.05-10.6,26.96-21.08,53.6-31.65,80.48-.72.08-1.48.16-2.59.28-9.98-35.74-19.9-71.29-29.93-107.18h0Z"/>
  <path class="cls-2" d="m442.16,129.13c-23.06,32.01-50.71,59.35-84.65,79.5-26.73,15.87-56.33,25.01-86.58,32.04,6.79-3.2,13.73-6.13,20.34-9.66,14.96-8,29.35-16.85,42.63-27.54,9.73-7.84,19.45-15.64,28.06-24.7,7.6-7.99,15.06-16.09,21.24-25.33,5.34-7.99,11.26-15.6,16.88-23.4.79-1.1,1.8-1.34,3.01-1.34,12.98.03,25.95.05,38.93.08,0,.14.04.26.15.36h0Z"/>
  <path class="cls-4" d="m468.93,128.61h40.71c-26.32,51.43-70.84,81.49-121.79,107.75,17.51-17.1,32.7-33.29,45.61-51.45,12.78-17.99,24.41-36.72,35.47-56.29h0Z"/>
  <path class="cls-3" d="m873.53,118.27v-45.95h9.84v109.92h-9.77v-11.89c-27.16,21.7-51.31,20.83-69.62-10.58-8.87-15.23-2.62-37.85,11.4-49.4,8.71-7.18,18.88-10.01,30.11-9.04,11.5.99,20.22,6.99,28.04,16.95h0Zm.17,24.75c-.07-19.52-13.04-32.05-33.12-31.98-16.46.05-29.59,14.69-29.52,32.93.06,17.49,14.08,31.27,31.72,31.18,18.34-.09,30.99-13.24,30.92-32.12h0Z"/>
  <path class="cls-3" d="m96.72,155.44c2.83,2.17,5.53,4.23,8.34,6.39-13.24,16.18-30.33,22.66-50.69,21.68-22.89-1.1-40.39-11.66-49.22-32.55-16.31-38.59,7.54-78.92,51.12-80.51,18.32-.67,34.16,5.63,46.52,19.65,1.57,1.77,2.02,3.22-.34,4.76-2,1.31-3.82,2.89-5.71,4.35-22.14-26.98-57.79-20.4-72.98-4.06-16.54,17.8-16.57,46.59.06,63.9,16.07,16.73,49.7,22.25,72.88-3.61h.02Z"/>
  <path class="cls-4" d="m515.42,112.52h-39.06c3.16-5.19,5.86-10.1,9.01-14.71,4.81-7.06,9.86-13.96,14.94-20.83,9.04-12.25,18.92-23.78,29.72-34.52,15.32-15.22,32.1-28.41,52.29-36.59,6.19-2.51,12.74-4.11,19.18-5.87-46.13,24.13-70.17,65.04-86.08,112.53h0Z"/>
  <path class="cls-2" d="m548.49,16.6c-37.39,25.81-66.86,59.54-94.66,94.92h-36.17c7.12-7.61,14.77-15.79,22.42-23.96,1.42-.13,2.06-1.15,2.6-2.28,12.99-13.04,27.49-24.26,42.29-35.12,19.03-13.96,40.03-24.31,61.45-33.93.44-.2.96-.22,1.45-.32.21.23.42.46.63.68h-.01Z"/>
  <path class="cls-3" d="m201.78,182.67c-22.24.11-40.33-17.24-41.46-37.71-1.55-28.16,20.61-46.12,41.77-45.87,23.01.28,41.22,18.7,41.28,42.45.07,23.11-18.04,41.01-41.6,41.13h0Zm-31.11-41.36c-.3,17.3,13.11,31.91,29.56,32.18,18.74.31,32.67-12.9,32.92-31.21.24-18.12-13.41-33.01-30.49-33.26-17.82-.26-31.66,13.71-31.98,32.28h0Z"/>
  <path class="cls-3" d="m725.87,182.32h-10.02v-79.04h9.79v13.02c3.94-3.42,7.23-6.67,10.9-9.4,14.51-10.81,37.31-6.03,44.44,9.4,3.35,7.25,3.91,15.13,3.9,23.03-.01,14.23,0,28.47,0,42.93h-9.73c0-10.31.06-20.62-.02-30.94-.07-8.46.45-17.05-1.58-25.3-3.49-14.16-18.51-20-31.83-12.63-11.09,6.13-15.86,15.94-15.85,28.36.01,13.41,0,26.81,0,40.56h0Z"/>
  <path class="cls-3" d="m251.79,172.17c2.27-2.59,4.42-5.06,6.57-7.51,5.45,6.03,11.75,10.05,19.93,8.31,5.93-1.27,9.73-5.43,11.22-11.51,1.35-5.51-4.7-12.5-12.13-16.09-8.9-4.3-18.8-8.41-21.31-19.51-2.31-10.2,1.46-18.82,8.95-23.24,9.18-5.42,20.02-4.24,29.64,3.25,1.49,1.16,2.88,2.44,4.56,3.88-2.16,2.33-4.09,4.41-6.23,6.72-4.09-3.17-7.97-6.12-13.05-7.27-6.41-1.46-11.21.54-14.1,6.01-2.82,5.32-.98,10.36,3.73,13.69,7.31,5.18,15.38,9.35,22.4,14.87,6.95,5.46,8.85,13.44,6.54,21.91-2.38,8.69-8.23,14.61-17.09,16.38-11.9,2.38-20.13-.68-29.61-9.89h-.02Z"/>
  <path class="cls-3" d="m354.25,109.9c-2.17,2.3-4.27,4.52-6.28,6.65-5.77-4.09-10.95-9.15-18.8-7.49-4.41.93-7.96,3.4-8.98,7.77-1.11,4.77.24,9.41,4.57,12.3,6.02,4.02,12.34,7.59,18.41,11.54,10.62,6.92,13.93,17.16,9.31,28.27-4.11,9.9-15.39,15.38-26.63,13.5-7.6-1.27-13.91-4.47-18.98-10.63,1.92-2.17,4.06-4.59,6.46-7.29,5.21,5.58,10.7,9.52,18.53,8.72,6.23-.64,12.46-5.84,12.78-12.54.28-5.76-2.89-9.76-8.19-12.84-9.44-5.48-21.03-8.98-24.78-20.98-2.43-7.77-1.18-15.32,4.94-21.31,5.82-5.7,12.91-7.59,20.79-5.74,6.57,1.54,12.03,5.18,16.84,10.07h.01Z"/>
  <path class="cls-3" d="m153.16,110.32c-13.72-4.91-22.58,8.84-23.84,20.88-1.72,16.37-.68,32.82-1.04,49.39h-9.8v-79.28h9.83v11.23c8.17-9.78,16.55-17.2,29.98-10.66-1.77,2.91-3.42,5.63-5.12,8.43h-.01Z"/>
  <path class="cls-3" d="m687.33,103.28h9.69v79h-9.69v-79Z"/>
  <path class="cls-3" d="m700.87,78.9c-.77,4.87-3.39,8.27-8.56,8.14-5.05-.12-8.43-2.91-8.53-8.42-.1-5.48,3.56-8.08,8.2-8.25,5.14-.19,8.23,3.11,8.89,8.53Z"/>
  <path class="cls-1" d="m548.49,16.6c-.21-.23-.42-.46-.63-.68.99-1.13,2.12-1.95,4.8-1.82-1.93,1.16-3.05,1.83-4.17,2.5Z"/>
  <path class="cls-1" d="m442.68,85.28c-.55,1.13-1.18,2.16-2.6,2.28.54-1.13,1.17-2.17,2.6-2.28Z"/>
  <path class="cls-1" d="m442.16,129.13c-.1-.1-.15-.22-.15-.36.1.06.2.13.3.19-.05.06-.1.11-.16.17h.01Z"/>
</svg>